<svg width="352" height="334" viewBox="0 0 352 334" fill="none" xmlns="http://www.w3.org/2000/svg">
<rect x="6.5" y="104.5" width="339" height="221" stroke="white" stroke-dasharray="2 2"/>
<rect x="6.5" y="9.5" width="100" height="89" stroke="white" stroke-dasharray="2 2"/>
<rect x="149.5" y="9.5" width="196" height="89" stroke="white" stroke-dasharray="2 2"/>
<rect x="299.5" y="113.5" width="41" height="203" stroke="white"/>
<rect x="299.5" y="18.5" width="41" height="70" stroke="white"/>
<rect x="251.5" y="113.5" width="41" height="203" stroke="white"/>
<rect x="251.5" y="18.5" width="41" height="70" stroke="white"/>
<rect x="203.5" y="113.5" width="41" height="203" stroke="white"/>
<rect x="203.5" y="18.5" width="41" height="70" stroke="white"/>
<rect x="155.5" y="113.5" width="41" height="203" stroke="white"/>
<rect x="155.5" y="18.5" width="41" height="70" stroke="white"/>
<rect x="107.5" y="113.5" width="41" height="203" stroke="white"/>
<rect x="59.5" y="113.5" width="41" height="203" stroke="white"/>
<rect x="59.5" y="18.5" width="41" height="70" stroke="white"/>
<rect x="11.5" y="113.5" width="41" height="203" stroke="white"/>
<rect x="11.5" y="18.5" width="41" height="70" stroke="white"/>
</svg>
